# xmcd
#
# Track frame offsets:
#	150
#	12780
#	24639
#	34999
#	50068
#	64056
#	77676
#	90992
#	105641
#	121129
#	132840
#	144878
#	158999
#	173345
#
# Disc length: 2530 seconds
#
# Revision: 1
# Processed by: cddbd v1.5.2PL0 Copyright (c) Steve Scherf et al.
# Submitted via: audiograbber 1.83.01
#
DISCID=a709e00e
DTITLE=Pat C. Miller and Her Five Aces - My Heart´s On Fire 
DYEAR=2006
DGENRE=Western Swing
TTITLE0=Shake Your Tail
TTITLE1=Danny Boy
TTITLE2=Man in Uniform
TTITLE3=Poor Girl Out of Love
TTITLE4=Walking Up That Gate
TTITLE5=My Hearts On Fire
TTITLE6=Busfare to Kentucky
TTITLE7=If I Could See the World
TTITLE8=I Got Swing
TTITLE9=Cowboy´s  Sweetheart
TTITLE10=Cool Cat
TTITLE11=Get Down That Valley
TTITLE12=I´m Leavin´ This Ole Town
TTITLE13=Broken Heart
EXTD=
EXTT0=
EXTT1=
EXTT2=
EXTT3=
EXTT4=
EXTT5=
EXTT6=
EXTT7=
EXTT8=
EXTT9=
EXTT10=
EXTT11=
EXTT12=
EXTT13=
PLAYORDER=
